HIERARCHY
ROOT Hips
{
	OFFSET 0.00000 0.00000 0.00000
	CHANNELS 6 Xposition Yposition Zposition Zrotation Yrotation Xrotation 
	JOINT LHipJoint
	{
		OFFSET 0 0 0
		CHANNELS 3 Zrotation Yrotation Xrotation
		JOINT LeftHip
		{
			OFFSET 1.37590 -1.78394 0.89329
			CHANNELS 3 Zrotation Yrotation Xrotation
			JOINT LeftKnee
			{
				OFFSET 2.47928 -6.81178 0.00000
				CHANNELS 3 Zrotation Yrotation Xrotation
				JOINT LeftAnkle
				{
					OFFSET 2.63345 -7.23535 0.00000
					CHANNELS 3 Zrotation Yrotation Xrotation
					JOINT LeftToe
					{
						OFFSET 0.23938 -0.65768 2.27012
						CHANNELS 3 Zrotation Yrotation Xrotation
						End Site
						{
							OFFSET 0.00000 -0.00000 1.18363
						}
					}
				}
			}
		}
	}
	JOINT RHipJoint
	{
		OFFSET 0 0 0
		CHANNELS 3 Zrotation Yrotation Xrotation
		JOINT RightHip
		{
			OFFSET -1.33617 -1.78394 0.89329
			CHANNELS 3 Zrotation Yrotation Xrotation
			JOINT RightKnee
			{
				OFFSET -2.56922 -7.05888 0.00000
				CHANNELS 3 Zrotation Yrotation Xrotation
				JOINT RightAnkle
				{
					OFFSET -2.56568 -7.04915 0.00000
					CHANNELS 3 Zrotation Yrotation Xrotation
					JOINT RightToe
					{
						OFFSET -0.27533 -0.75646 2.18105
						CHANNELS 3 Zrotation Yrotation Xrotation
						End Site
						{
							OFFSET -0.00000 -0.00000 1.15233
						}
					}
				}
			}
		}
	}
	JOINT lowerback
	{
		OFFSET 0 0 0
		CHANNELS 3 Zrotation Yrotation Xrotation
		JOINT Chest
		{
			OFFSET 0.06190 2.15152 -0.00935
			CHANNELS 3 Zrotation Yrotation Xrotation
			JOINT Chest2
			{
				OFFSET 0.06334 2.15332 0.00872
				CHANNELS 3 Zrotation Yrotation Xrotation
				JOINT lowerneck
				{
					OFFSET 0 0 0
					CHANNELS 3 Zrotation Yrotation Xrotation
					JOINT Neck
					{
						OFFSET -0.04202 1.66908 0.23524
						CHANNELS 3 Zrotation Yrotation Xrotation
						JOINT Head
						{
							OFFSET 0.07510 1.69357 -0.24440
							CHANNELS 3 Zrotation Yrotation Xrotation
							End Site
							{
								OFFSET 0.02556 1.71719 -0.11000
							}
						}
					}
				}
				JOINT LeftCollar
				{
					OFFSET 0 0 0
					CHANNELS 3 Zrotation Yrotation Xrotation
					JOINT LeftShoulder
					{
						OFFSET 3.67168 1.26306 -0.41342
CHANNELS 3 Zrotation Xrotation Yrotation
						JOINT LeftElbow
						{
OFFSET 0 -4.685100 -0.000000
CHANNELS 3 Zrotation Xrotation Yrotation
							JOINT LeftWrist
							{
OFFSET 0 -3.396260 -0.000000
CHANNELS 3 Zrotation Xrotation Yrotation
								JOINT lhand
								{
									OFFSET 0 0 0
CHANNELS 3 Zrotation Xrotation Yrotation
									JOINT LFingers
									{
OFFSET 0 -0.486080 -0.000000
CHANNELS 3 Zrotation Xrotation Yrotation
										End Site
										{
OFFSET 0 -0.391890 -0.000000
										}
									}
								}
								JOINT LThumb
								{
OFFSET 0 0.000000 0.000000
CHANNELS 3 Zrotation Xrotation Yrotation
									End Site
									{
OFFSET 0 -0.397870 0.397870
									}
								}
							}
						}
					}
				}
				JOINT RightCollar
				{
					OFFSET 0 0 0
					CHANNELS 3 Zrotation Yrotation Xrotation
					JOINT RightShoulder
					{
						OFFSET -3.04136 1.42992 -0.76390
CHANNELS 3 Zrotation Xrotation Yrotation
						JOINT RightElbow
						{
OFFSET 0 -5.555760 -0.000000
CHANNELS 3 Zrotation Xrotation Yrotation
							JOINT RightWrist
							{
OFFSET 0 -3.327740 -0.000000
CHANNELS 3 Zrotation Xrotation Yrotation
								JOINT rhand
								{
									OFFSET 0 0 0
CHANNELS 3 Zrotation Xrotation Yrotation
									JOINT RFingers
									{
OFFSET 0 -0.507630 -0.000000
CHANNELS 3 Zrotation Xrotation Yrotation
										End Site
										{
OFFSET 0 -0.409260 -0.000000
										}
									}
								}
								JOINT RThumb
								{
OFFSET 0 0.000000 0.000000
CHANNELS 3 Zrotation Xrotation Yrotation
									End Site
									{
OFFSET 0 -0.415510 0.415510
									}
								}
							}
						}
					}
				}
			}
		}
	}
}
MOTION
Frames: 6
Frame Time: 0.008333333333333333
39.972100 17.879800 6.252700 -139.238000 -81.242600 149.389000 0.000000 0.000000 0.000000 -13.646200 -6.117700 -6.347100 0.255100 3.250000 8.975500 0.096800 5.682300 -10.471300 0.004300 0.423100 1.162600 0.000000 0.000000 0.000000 25.999000 7.441400 -9.856400 -0.595900 -4.942000 13.743300 0.116000 -9.737300 -11.692000 -0.565700 -4.817400 13.388400 3.459200 -1.369900 -5.337800 2.930400 -2.113000 -2.837800 0.961500 -1.120700 0.058300 -11.020600 -7.794700 -16.435900 7.102600 -9.695000 18.990800 2.929500 -4.628900 9.613700 0.000000 0.000000 0.000000 2.169500 1.999500 -17.136000 16.075400 -25.622800 3.678500 1.230100 18.660000 -33.145000 0.000000 0.000000 0.000000 -7.125000 0.000000 0.000000 -35.400000 59.455400 13.527000 0.000000 0.000000 0.000000 -5.586300 -1.831500 24.087800 -15.455900 -24.777300 -3.414700 -13.644000 15.090000 24.892000 0.000000 0.000000 0.000000 7.125000 0.000000 -0.000000 16.865400 54.701700 -4.106700
39.969914 17.880454 6.252900 -139.187184 -81.277518 149.328958 0.000000 0.000000 0.000000 -13.672649 -6.152541 -6.311312 0.254069 3.243144 8.956417 0.095644 5.700093 -10.467841 0.003891 0.401924 1.104354 0.000000 0.000000 0.000000 25.978374 7.395267 -9.839113 -0.593261 -4.931099 13.712096 0.118792 -9.755561 -11.662170 -0.563272 -4.806801 13.358458 3.427176 -1.385595 -5.421202 2.936707 -2.138042 -2.803265 0.981329 -1.131473 0.141514 -11.043736 -7.799633 -16.388932 7.129801 -9.701775 18.921617 2.943036 -4.631447 9.584369 0.000000 0.000000 0.000000 2.110960 1.976617 -17.106774 16.059937 -25.601826 3.671819 1.276443 18.713247 -33.277228 0.000000 0.000000 0.000000 -7.125000 0.000000 0.000000 -35.487225 59.573416 13.667972 0.000000 0.000000 0.000000 -5.603485 -1.962853 24.449438 -15.559599 -24.919886 -3.458298 -13.628412 15.009837 25.158289 0.000000 0.000000 0.000000 7.125000 0.000000 0.000000 17.025570 54.954668 -4.254969
39.967428 17.880585 6.252808 -139.196239 -81.279446 149.344013 0.000000 0.000000 0.000000 -13.677107 -6.152296 -6.299751 0.253153 3.237546 8.940762 0.094115 5.714957 -10.451725 0.004965 0.452506 1.243409 0.000000 0.000000 0.000000 25.980073 7.422369 -9.820622 -0.592268 -4.927070 13.700751 0.120750 -9.774874 -11.653818 -0.577257 -4.865290 13.524628 3.411622 -1.355609 -5.416800 2.924257 -2.096595 -2.809099 0.979659 -1.110687 0.133501 -11.016978 -7.835751 -16.456393 7.117866 -9.751336 18.959896 2.924962 -4.651945 9.612915 0.000000 0.000000 0.000000 2.094681 1.981384 -17.153560 16.022492 -25.551108 3.655619 1.450182 18.876186 -33.392666 0.000000 0.000000 0.000000 -7.125000 0.000000 0.000000 -35.434778 59.707439 13.759920 0.000000 0.000000 0.000000 -5.586559 -2.033543 24.654086 -15.660794 -25.058584 -3.501119 -14.015252 15.067903 25.060542 0.000000 0.000000 0.000000 7.125000 0.000000 0.000000 16.584187 54.935151 -4.131116
39.965480 17.880939 6.253223 -138.985381 -81.313070 149.142219 0.000000 0.000000 0.000000 -13.669967 -6.157629 -6.306254 0.252800 3.235284 8.934529 0.095775 5.675291 -10.443370 0.005520 0.478021 1.313456 0.000000 0.000000 0.000000 25.986197 7.418613 -9.816134 -0.591396 -4.923425 13.690184 0.122791 -9.820134 -11.687843 -0.571841 -4.842824 13.460790 3.429143 -1.357122 -5.486888 2.917077 -2.104123 -2.765505 0.959127 -1.113067 0.216381 -11.048088 -7.875935 -16.532860 7.158578 -9.796884 18.942353 2.934759 -4.668217 9.629219 0.000000 0.000000 0.000000 2.053332 1.913386 -17.092840 15.967141 -25.476069 3.631795 6.198735 20.447220 -28.048196 0.000000 0.000000 0.000000 -7.125000 0.000000 0.000000 -27.300179 55.773955 9.076146 0.000000 0.000000 0.000000 -5.577263 -2.186560 24.824160 -15.732638 -25.156819 -3.531549 -13.627702 14.958892 25.213442 0.000000 0.000000 0.000000 7.125000 0.000000 0.000000 17.055147 55.007870 -4.283705
39.963055 17.880745 6.253950 -138.986544 -81.331996 149.139845 0.000000 0.000000 0.000000 -13.687584 -6.150391 -6.295593 0.253140 3.237054 8.939538 0.098190 5.643462 -10.458895 0.004631 0.436734 1.200122 0.000000 0.000000 0.000000 25.972684 7.427347 -9.796782 -0.590940 -4.921660 13.685294 0.124455 -9.837046 -11.682430 -0.578480 -4.870336 13.539204 3.435362 -1.311720 -5.420994 2.873449 -2.038407 -2.760243 0.916163 -1.080113 0.183829 -10.957209 -7.949779 -16.737364 7.129796 -9.899702 19.036780 2.888169 -4.706713 9.703356 0.000000 0.000000 0.000000 2.085132 1.881298 -17.188476 15.907224 -25.394757 3.606094 13.557589 22.785548 -19.550930 0.000000 0.000000 0.000000 -7.125000 0.000000 0.000000 -14.525744 49.485795 1.637673 0.000000 0.000000 0.000000 -5.519030 -2.254462 24.878116 -15.813949 -25.267803 -3.566238 -13.491024 14.719584 24.629672 0.000000 0.000000 0.000000 7.125000 0.000000 0.000000 16.879583 54.419872 -3.993437
39.962075 17.880675 6.253869 -138.731903 -81.344766 148.895649 0.000000 0.000000 0.000000 -13.658051 -6.150085 -6.316476 0.253725 3.240849 8.950160 0.098631 5.618623 -10.440455 0.003957 0.404930 1.112629 0.000000 0.000000 0.000000 26.001645 7.409013 -9.806576 -0.591094 -4.922350 13.687249 0.125919 -9.856947 -11.685056 -0.570232 -4.836064 13.441537 3.393510 -1.327687 -5.315624 2.939348 -2.051324 -2.905031 1.012525 -1.091001 -0.020081 -11.063128 -7.917830 -16.506333 7.135475 -9.858210 19.024393 2.920128 -4.701920 9.658940 0.000000 0.000000 0.000000 1.935605 2.182072 -17.051467 15.839610 -25.302683 3.577131 13.545185 22.860990 -19.419554 0.000000 0.000000 0.000000 -7.125000 0.000000 0.000000 -14.487370 49.354851 1.585688 0.000000 0.000000 0.000000 -5.634220 -2.057961 25.142960 -15.886134 -25.366083 -3.597067 -13.049446 14.597281 25.456900 0.000000 0.000000 0.000000 7.125000 0.000000 0.000000 17.845528 55.110857 -4.613978
